<svg xmlns="http://www.w3.org/2000/svg" xml:space="preserve" width="192" height="192" data-version="2">
    <path fill="#cce34d" d="M93.94 99.81 62.18 147.4 47.42 47.73h19.04l5.99 41.06q.43 2.89.85 6.05.43 3.15.64 7.64 2.46-4.49 4.55-7.64 2.09-3.16 4.01-6.05l29.41-44.27 7.59 44.27q.54 2.89 1.18 6.05.64 3.15.85 7.64 2.46-4.49 4.39-7.64 1.92-3.16 3.74-6.05l26.31-41.06h20.64l-64.38 99.67-8.02-47.48q-.43-2.89-.96-6.1-.54-3.21-.75-7.7-2.46 4.49-4.55 7.65-2.08 3.15-4.01 6.04" paint-order="stroke"/>
</svg>
