<svg xmlns="http://www.w3.org/2000/svg" version="1.1" xmlns:xlink="http://www.w3.org/1999/xlink" width="2000" height="97" viewBox="0 0 2000 97"><svg xml:space="preserve" width="2000" height="97" data-version="2" data-id="lg_NDJR02DpBeMChQvc4n" viewBox="0 0 580 97" x="0" y="0"><rect width="100%" height="100%" fill="transparent"></rect><path fill="#cce34d" stroke="#0010bf" stroke-width="1.24" d="m48.355 52.09-28.87 43.27L6.065 4.75h17.31l5.44 37.33q.39 2.63.78 5.49.39 2.87.58 6.95 2.24-4.08 4.14-6.95 1.89-2.86 3.64-5.49l26.74-40.25 6.9 40.25q.49 2.63 1.07 5.49.58 2.87.78 6.95 2.23-4.08 3.98-6.95 1.75-2.86 3.41-5.49l23.91-37.33h18.77l-58.53 90.61-7.29-43.17q-.39-2.62-.88-5.54-.48-2.92-.68-7-2.23 4.08-4.13 6.95t-3.65 5.49zm81.87 40.16h-18.09l21.88-87.5h18.08zm63.58 0h-44.33l21.87-87.5h18.08l-17.98 71.75h26.25zm50.17 0h-36.17l21.87-87.5h24.8q11.57 0 20.85 5.15 9.28 5.15 14.68 13.9t5.4 19.74q0 9.62-4.18 18.37-4.18 8.75-11.38 15.61-7.19 6.85-16.43 10.79-9.24 3.94-19.44 3.94zm-1.27-71.75-14.1 56h16.14q6.42 0 12.2-2.58 5.79-2.58 10.31-7 4.52-4.42 7.1-10.16 2.57-5.74 2.57-12.05 0-7.1-3.25-12.55-3.26-5.44-9-8.55-5.73-3.11-13.22-3.11zm66.31 71.75h-17.99l60.96-90.61h.19l16.24 90.61h-16.62l-2.63-15.56h-29.75zm25.66-38.5-5.93 8.94h17.99l-1.56-8.94q-.68-3.6-1.16-6.95-.49-3.36-.59-7.83-2.13 4.37-4.23 7.78-2.09 3.4-4.52 7zm78.17 38.5h-17.5l10.4-41.42-13.7-46.08h18.47l5.44 19.64q.59 2.13 1.17 4.37t.97 5.25q1.95-3.11 3.6-5.3 1.65-2.19 3.3-4.32l15.27-19.64h19.64l-36.66 46.08zm49 1.94q-3.01 0-6.95-.78-3.94-.77-7.58-2.72-3.65-1.94-5.89-5.35l8.46-15.45q1.17 3.2 4.18 5.59 3.02 2.38 7.1 2.38t7.34-2.97q3.26-2.96 4.81-9.18l15.36-60.96h18.09l-16.14 64.36q-2.14 8.65-6.66 14.24t-10.31 8.22q-5.78 2.62-11.81 2.62Zm66.99 0q-8.17 0-15.95-3.74-7.78-3.74-11.76-9.68l9.43-18.56q1.26 4.47 4.37 8.16 3.12 3.7 7.15 5.88 4.03 2.19 8.22 2.19 3.4 0 6.17-1.46t4.42-3.89q1.66-2.43 1.66-5.44 0-2.82-1.56-5.2-1.56-2.38-4.96-5.11l-8.94-7.09q-6.91-5.54-9.68-10.07-2.77-4.52-2.77-10.25 0-7.68 3.89-13.81 3.89-6.12 10.5-9.72 6.61-3.6 14.78-3.6 7.29 0 14.34 2.92t11.71 7.87l-9.04 18.18q-3.01-6.02-8.12-9.72-5.1-3.69-10.54-3.69-4.48 0-7.49 2.62-3.01 2.63-3.01 6.61 0 2.34 1.41 4.33 1.41 1.99 4.91 4.62l9.04 6.8q6.61 4.87 9.57 9.97 2.97 5.1 2.97 11.42 0 8.07-4.18 14.78-4.18 6.71-11.13 10.7-6.95 3.98-15.41 3.98Z" paint-order="stroke"></path><path fill="#0010bf" d="m53.055 51.47-28.87 43.27-13.42-90.61h17.31l5.44 37.33q.39 2.63.78 5.49.39 2.87.58 6.95 2.24-4.08 4.13-6.95 1.9-2.86 3.65-5.49l26.74-40.25 6.9 40.25q.48 2.63 1.07 5.49.58 2.87.78 6.95 2.23-4.08 3.98-6.95 1.75-2.86 3.4-5.49l23.92-37.33h18.76l-58.52 90.61-7.29-43.17q-.39-2.62-.88-5.54t-.68-7q-2.24 4.08-4.13 6.95-1.9 2.87-3.65 5.49m81.86 40.16h-18.08l21.87-87.5h18.09zm63.59 0h-44.34l21.88-87.5h18.08l-17.98 71.75h26.25zm50.16 0h-36.16l21.87-87.5h24.79q11.57 0 20.86 5.15 9.28 5.15 14.68 13.9 5.39 8.75 5.39 19.74 0 9.62-4.18 18.37-4.18 8.75-11.37 15.61-7.2 6.85-16.43 10.79-9.24 3.94-19.45 3.94m-1.26-71.75-14.1 56h16.14q6.42 0 12.2-2.58 5.79-2.58 10.31-7 4.52-4.42 7.1-10.16 2.57-5.74 2.57-12.05 0-7.1-3.26-12.55-3.25-5.44-8.99-8.55-5.73-3.11-13.22-3.11zm66.3 71.75h-17.98l60.96-90.61h.19l16.24 90.61h-16.63l-2.62-15.56h-29.75zm25.67-38.5-5.93 8.94h17.99l-1.56-8.94q-.68-3.6-1.17-6.95-.48-3.36-.58-7.83-2.14 4.37-4.23 7.78-2.09 3.4-4.52 7m78.17 38.5h-17.5l10.4-41.42-13.71-46.08h18.47l5.45 19.64q.58 2.13 1.17 4.37.58 2.24.97 5.25 1.94-3.11 3.6-5.3 1.65-2.19 3.3-4.32l15.26-19.64h19.64l-36.65 46.08zm49 1.94q-3.02 0-6.95-.78-3.94-.77-7.59-2.72-3.64-1.94-5.88-5.35l8.46-15.45q1.17 3.2 4.18 5.59 3.01 2.38 7.1 2.38 4.08 0 7.34-2.97 3.25-2.96 4.81-9.18l15.36-60.96h18.08l-16.13 64.36q-2.14 8.65-6.66 14.24t-10.31 8.22q-5.78 2.62-11.81 2.62m66.98 0q-8.16 0-15.94-3.74-7.78-3.74-11.76-9.68l9.43-18.56q1.26 4.47 4.37 8.16 3.11 3.7 7.15 5.88 4.03 2.19 8.21 2.19 3.41 0 6.18-1.46 2.77-1.46 4.42-3.89t1.65-5.44q0-2.82-1.55-5.2-1.56-2.38-4.96-5.11l-8.95-7.09q-6.9-5.54-9.67-10.07-2.77-4.52-2.77-10.25 0-7.68 3.89-13.81 3.89-6.12 10.5-9.72 6.61-3.6 14.78-3.6 7.29 0 14.34 2.92t11.71 7.87l-9.04 18.18q-3.01-6.02-8.12-9.72-5.1-3.69-10.55-3.69-4.47 0-7.48 2.62-3.02 2.63-3.02 6.61 0 2.34 1.41 4.33 1.41 1.99 4.91 4.62l9.04 6.8q6.62 4.87 9.58 9.97 2.97 5.1 2.97 11.42 0 8.07-4.18 14.78-4.18 6.71-11.14 10.7-6.95 3.98-15.41 3.98" paint-order="stroke"></path></svg></svg>